<svg version="1" xmlns="http://www.w3.org/2000/svg" width="933.333" height="933.333" viewBox="0 0 700.000000 700.000000"><path d="M357.8 87.2c-4 3.4-7.5 6.5-7.8 6.8-.5.5-12.4 10.9-30.6 26.5-17.9 15.5-55.1 47.9-58.4 50.9-1.9 1.7-8.4 7.4-14.5 12.6-6 5.2-11.2 9.7-11.5 10-.3.3-3.9 3.4-8 7s-7.7 6.7-8 7c-.3.3-4.1 3.6-8.5 7.4-4.4 3.8-10.7 9.2-14 12.1-7.9 6.9-30.5 26.6-38.5 33.5-3.5 3-6.8 5.9-7.4 6.5-.6.5-6.1 5.3-12.1 10.5-6.1 5.2-11.2 9.7-11.5 10-.3.3-3.9 3.4-8 6.9-4.1 3.5-8.2 7.1-9.1 8-.8.9-3.5 3.2-5.9 5.1-2.4 1.9-5.1 4.2-5.9 5-.9.9-5 4.5-9.1 8-4.1 3.6-7.7 6.7-8 7-.3.3-5.7 5-12 10.5-6.3 5.4-12.2 10.6-13.1 11.5-.9.8-4.6 4-8.2 7l-6.5 5.5 3.1 1.3c3.1 1.3 112.4 42.4 124.2 46.7 3.3 1.2 32.1 12 64 24s60.9 22.9 64.5 24.2c3.6 1.3 8.1 3 10 3.7 4.1 1.5 50 18.7 58 21.8 3 1.1 7.1 2.6 9 3.4 1.9.7 9.1 3.4 16 6 6.9 2.5 15.2 5.6 18.5 6.9 3.3 1.2 9.6 3.6 14 5.3 4.4 1.6 16.1 6 26 9.7 9.9 3.6 19 7 20.3 7.5 1.2.6 19.2 7.3 40 15.1 20.7 7.8 40 15.1 42.7 16.1 2.8 1.1 7.3 2.8 10 3.8 2.8.9 16.7 6.1 31 11.5 37.2 14 37 13.9 48 18 5.5 2 14.6 5.4 20.3 7.6 11.3 4.3 12.2 4.5 12.2 2.6 0-.6-4.5-3.9-10-7.2-5.5-3.3-11.5-6.9-13.2-8-1.8-1-19.5-11.8-39.3-23.8-19.8-12.1-37.5-22.8-39.4-23.9-1.9-1.1-5.8-3.4-8.6-5.1-11.7-7.3-26.7-16.4-55.9-34.1-14.2-8.6-28.2-17.2-31-19-2.8-1.8-5.8-3.5-6.6-3.9-.8-.4-5.3-3.1-10-6-6.8-4.2-26.1-16-53.5-32.7-1.4-.8-8.9-5.4-16.7-10.1-7.9-4.7-38.1-23.1-67.3-40.9-29.1-17.7-54.3-33-56-34-1.6-.9-9.1-5.5-16.5-10-7.4-4.6-16-9.8-19-11.6-8.6-5.2-8.5-5.1-7.3-6.6.6-.7 9-14.4 18.6-30.3 9.6-16 25.1-41.6 34.4-57 61.7-101.9 80.8-133.4 82.6-136.5 1-1.9 2.7-4.6 3.7-6 3.2-4.5 5-8.9 4.1-9.5-.6-.3-4.3 2.3-8.3 5.7z"/><path d="M387.5 107.3c-2.7 6.2-6.4 14.6-8.3 18.7-1.9 4.1-5.4 11.8-7.7 17-2.3 5.2-5.9 13-7.9 17.3-2 4.3-3.6 8-3.6 8.2 0 .2-1.7 4.1-3.9 8.7-2.1 4.5-5.7 12.6-8.1 17.8-2.3 5.2-5.3 12-6.7 15-1.4 3-3.1 6.8-3.8 8.5-.7 1.6-2.6 5.7-4.1 9-12.2 27-23.4 52-23.4 52.5 0 .4 2.1 2.2 4.8 4 2.6 1.9 5.2 3.9 5.9 4.5.6.5 6.2 4.7 12.5 9.2 11 8.1 50.8 37.3 75.8 55.7 6.9 5.1 26 19.1 42.5 31.3 27.2 19.9 88.7 65.2 94.6 69.6 1.3.9 8.2 6 15.3 11.2 7.1 5.2 14 10.3 15.5 11.4 1.4 1.1 9.8 7.2 18.6 13.7 8.8 6.4 21.3 15.7 27.9 20.6 10.7 8.1 13.8 9.7 13.7 7.5 0-.5-7.3-6.3-16.3-13s-22.1-17.2-29.3-23.2c-13.4-11.3-49.6-46.8-57.5-56.4-2.5-3-5.8-6.8-7.3-8.5-2.4-2.6-7.9-9.5-22-27.6-11.5-14.8-32.9-48.3-44.2-69-11.7-21.7-27.2-56-33.5-74-1.2-3.6-2.6-7.4-3-8.5-2.5-5.9-12.6-38.9-14.5-47.5-.2-.8-1.8-7.6-3.5-15-3.3-13.9-8.3-42.5-9.5-54-.4-3.6-.9-7.3-1-8.2-.2-.9-.7-4.8-1-8.5-.4-3.7-1-7.3-1.4-8-.3-.7-2.8 3.8-5.6 10z"/></svg>